<?xml version="1.0" encoding="UTF-8" standalone="no"?>
<svg width="512" height="512" viewBox="0 0 512 512" xmlns="http://www.w3.org/2000/svg">
  <rect width="512" height="512" rx="100" fill="#111111"/>
  <g transform="translate(256, 230)" fill="none" stroke="#FFFFFF" stroke-linecap="round" stroke-linejoin="round">
    <!-- Antenna stick -->
    <line x1="0" y1="-120" x2="0" y2="-100" stroke-width="5"/>
    <!-- Antenna ball -->
    <circle cx="0" cy="-126" r="8" fill="#FFFFFF" stroke="none"/>
    <!-- Head (helmet) outer -->
    <ellipse cx="0" cy="-62" rx="62" ry="56" stroke-width="5"/>
    <!-- Visor / face area -->
    <ellipse cx="0" cy="-55" rx="44" ry="36" stroke-width="4"/>
    <!-- Left eye -->
    <circle cx="-16" cy="-58" r="12" stroke-width="4"/>
    <circle cx="-16" cy="-58" r="5" fill="#FFFFFF" stroke="none"/>
    <!-- Right eye -->
    <circle cx="16" cy="-58" r="12" stroke-width="4"/>
    <circle cx="16" cy="-58" r="5" fill="#FFFFFF" stroke="none"/>
    <!-- Smile -->
    <path d="M-10,-40 Q0,-33 10,-40" stroke-width="3.5" fill="none"/>
    <!-- Neck -->
    <line x1="-8" y1="-8" x2="-14" y2="8" stroke-width="5"/>
    <line x1="8" y1="-8" x2="14" y2="8" stroke-width="5"/>
    <!-- Body / torso -->
    <path d="M-30,8 L-38,20 L-30,60 L-14,68 L0,62 L14,68 L30,60 L38,20 L30,8 Z" stroke-width="5"/>
    <!-- Chest chevron -->
    <path d="M-12,24 L0,36 L12,24" stroke-width="4" fill="none"/>
    <!-- Left arm -->
    <path d="M-38,22 L-56,30 L-64,50 L-58,60" stroke-width="5"/>
    <!-- Left hand -->
    <circle cx="-58" cy="64" r="6" stroke-width="4"/>
    <line x1="-64" y1="60" x2="-68" y2="54" stroke-width="3"/>
    <line x1="-58" y1="58" x2="-60" y2="50" stroke-width="3"/>
    <!-- Right arm -->
    <path d="M38,22 L56,30 L64,50 L58,60" stroke-width="5"/>
    <!-- Right hand -->
    <circle cx="58" cy="64" r="6" stroke-width="4"/>
    <line x1="64" y1="60" x2="68" y2="54" stroke-width="3"/>
    <line x1="58" y1="58" x2="60" y2="50" stroke-width="3"/>
    <!-- Ear accents -->
    <path d="M-58,-70 Q-68,-62 -62,-48" stroke-width="4"/>
    <path d="M58,-70 Q68,-62 62,-48" stroke-width="4"/>
  </g>
</svg>
